<mxfile host="Electron" modified="2024-03-31T22:36:39.227Z" agent="Mozilla/5.0 (Windows NT 10.0; Win64; x64) AppleWebKit/537.36 (KHTML, like Gecko) draw.io/24.1.0 Chrome/120.0.6099.109 Electron/28.1.0 Safari/537.36" etag="RF53zQMeUpAspJrvk6XY" version="24.1.0" type="device">
  <diagram name="Page-1" id="e7e014a7-5840-1c2e-5031-d8a46d1fe8dd">
    <mxGraphModel dx="7374" dy="2658" grid="1" gridSize="10" guides="1" tooltips="1" connect="1" arrows="1" fold="1" page="1" pageScale="1" pageWidth="2336" pageHeight="1654" background="none" math="0" shadow="0">
      <root>
        <mxCell id="0" />
        <mxCell id="1" parent="0" />
        <mxCell id="jaTv15KmfSq4KuKZcP_w-41" value="WebController" style="swimlane;fontStyle=1;align=center;verticalAlign=top;childLayout=stackLayout;horizontal=1;startSize=26;horizontalStack=0;resizeParent=1;resizeParentMax=0;resizeLast=0;collapsible=1;marginBottom=0;whiteSpace=wrap;html=1;" parent="1" vertex="1">
          <mxGeometry x="-2246" y="660" width="350" height="150" as="geometry" />
        </mxCell>
        <mxCell id="jaTv15KmfSq4KuKZcP_w-42" value="-loggedInUser: User&lt;div&gt;- searchCriteria: string&lt;/div&gt;" style="text;strokeColor=none;fillColor=none;align=left;verticalAlign=top;spacingLeft=4;spacingRight=4;overflow=hidden;rotatable=0;points=[[0,0.5],[1,0.5]];portConstraint=eastwest;whiteSpace=wrap;html=1;" parent="jaTv15KmfSq4KuKZcP_w-41" vertex="1">
          <mxGeometry y="26" width="350" height="34" as="geometry" />
        </mxCell>
        <mxCell id="jaTv15KmfSq4KuKZcP_w-43" value="" style="line;strokeWidth=1;fillColor=none;align=left;verticalAlign=middle;spacingTop=-1;spacingLeft=3;spacingRight=3;rotatable=0;labelPosition=right;points=[];portConstraint=eastwest;strokeColor=inherit;" parent="jaTv15KmfSq4KuKZcP_w-41" vertex="1">
          <mxGeometry y="60" width="350" height="8" as="geometry" />
        </mxCell>
        <mxCell id="jaTv15KmfSq4KuKZcP_w-44" value="+displayHomePage()&lt;div&gt;+displayMoviePage(movieId)&lt;/div&gt;&lt;div&gt;+loginUser(username: string, password:string)&lt;/div&gt;&lt;div&gt;+logoutUser()&lt;/div&gt;&lt;div&gt;+registerUser(username: string, email: string, password: string)&lt;/div&gt;" style="text;strokeColor=none;fillColor=none;align=left;verticalAlign=top;spacingLeft=4;spacingRight=4;overflow=hidden;rotatable=0;points=[[0,0.5],[1,0.5]];portConstraint=eastwest;whiteSpace=wrap;html=1;" parent="jaTv15KmfSq4KuKZcP_w-41" vertex="1">
          <mxGeometry y="68" width="350" height="82" as="geometry" />
        </mxCell>
        <mxCell id="jaTv15KmfSq4KuKZcP_w-45" value="&amp;lt;&amp;lt;interface&amp;gt;&amp;gt;&lt;div&gt;User Interface&lt;/div&gt;" style="swimlane;fontStyle=1;align=center;verticalAlign=top;childLayout=stackLayout;horizontal=1;startSize=40;horizontalStack=0;resizeParent=1;resizeParentMax=0;resizeLast=0;collapsible=1;marginBottom=0;whiteSpace=wrap;html=1;" parent="1" vertex="1">
          <mxGeometry x="-2263" y="457" width="367" height="140" as="geometry" />
        </mxCell>
        <mxCell id="jaTv15KmfSq4KuKZcP_w-46" value="- loggedInUser: User" style="text;strokeColor=none;fillColor=none;align=left;verticalAlign=top;spacingLeft=4;spacingRight=4;overflow=hidden;rotatable=0;points=[[0,0.5],[1,0.5]];portConstraint=eastwest;whiteSpace=wrap;html=1;" parent="jaTv15KmfSq4KuKZcP_w-45" vertex="1">
          <mxGeometry y="40" width="367" height="20" as="geometry" />
        </mxCell>
        <mxCell id="jaTv15KmfSq4KuKZcP_w-47" value="" style="line;strokeWidth=1;fillColor=none;align=left;verticalAlign=middle;spacingTop=-1;spacingLeft=3;spacingRight=3;rotatable=0;labelPosition=right;points=[];portConstraint=eastwest;strokeColor=inherit;" parent="jaTv15KmfSq4KuKZcP_w-45" vertex="1">
          <mxGeometry y="60" width="367" height="8" as="geometry" />
        </mxCell>
        <mxCell id="jaTv15KmfSq4KuKZcP_w-48" value="+displayHomePage()&lt;div&gt;+displayMoviePage(movieId)&lt;/div&gt;&lt;div&gt;+loginUser(username: string,password: string)&lt;/div&gt;&lt;div&gt;+logoutUser()&lt;/div&gt;" style="text;strokeColor=none;fillColor=none;align=left;verticalAlign=top;spacingLeft=4;spacingRight=4;overflow=hidden;rotatable=0;points=[[0,0.5],[1,0.5]];portConstraint=eastwest;whiteSpace=wrap;html=1;" parent="jaTv15KmfSq4KuKZcP_w-45" vertex="1">
          <mxGeometry y="68" width="367" height="72" as="geometry" />
        </mxCell>
        <mxCell id="jaTv15KmfSq4KuKZcP_w-49" value="DesktopController" style="swimlane;fontStyle=1;align=center;verticalAlign=top;childLayout=stackLayout;horizontal=1;startSize=26;horizontalStack=0;resizeParent=1;resizeParentMax=0;resizeLast=0;collapsible=1;marginBottom=0;whiteSpace=wrap;html=1;" parent="1" vertex="1">
          <mxGeometry x="-1804.5" y="457" width="270" height="140" as="geometry" />
        </mxCell>
        <mxCell id="jaTv15KmfSq4KuKZcP_w-50" value="-loggedInUser: User&lt;div&gt;-searchCriteria: string&lt;/div&gt;" style="text;strokeColor=none;fillColor=none;align=left;verticalAlign=top;spacingLeft=4;spacingRight=4;overflow=hidden;rotatable=0;points=[[0,0.5],[1,0.5]];portConstraint=eastwest;whiteSpace=wrap;html=1;" parent="jaTv15KmfSq4KuKZcP_w-49" vertex="1">
          <mxGeometry y="26" width="270" height="34" as="geometry" />
        </mxCell>
        <mxCell id="jaTv15KmfSq4KuKZcP_w-51" value="" style="line;strokeWidth=1;fillColor=none;align=left;verticalAlign=middle;spacingTop=-1;spacingLeft=3;spacingRight=3;rotatable=0;labelPosition=right;points=[];portConstraint=eastwest;strokeColor=inherit;" parent="jaTv15KmfSq4KuKZcP_w-49" vertex="1">
          <mxGeometry y="60" width="270" height="8" as="geometry" />
        </mxCell>
        <mxCell id="jaTv15KmfSq4KuKZcP_w-52" value="+displayHomePage()&lt;div&gt;+displayMoviePage(movieId)&lt;/div&gt;&lt;div&gt;+loginUser(username: string, password: string)&lt;/div&gt;&lt;div&gt;+logoutUser()&lt;/div&gt;" style="text;strokeColor=none;fillColor=none;align=left;verticalAlign=top;spacingLeft=4;spacingRight=4;overflow=hidden;rotatable=0;points=[[0,0.5],[1,0.5]];portConstraint=eastwest;whiteSpace=wrap;html=1;" parent="jaTv15KmfSq4KuKZcP_w-49" vertex="1">
          <mxGeometry y="68" width="270" height="72" as="geometry" />
        </mxCell>
        <mxCell id="jaTv15KmfSq4KuKZcP_w-72" value="Entities" style="shape=umlFrame;whiteSpace=wrap;html=1;pointerEvents=0;" parent="1" vertex="1">
          <mxGeometry x="-2283" y="867" width="680" height="330" as="geometry" />
        </mxCell>
        <mxCell id="jaTv15KmfSq4KuKZcP_w-73" value="User" style="swimlane;fontStyle=0;childLayout=stackLayout;horizontal=1;startSize=26;fillColor=none;horizontalStack=0;resizeParent=1;resizeParentMax=0;resizeLast=0;collapsible=1;marginBottom=0;whiteSpace=wrap;html=1;" parent="1" vertex="1">
          <mxGeometry x="-1923" y="917" width="110" height="110" as="geometry" />
        </mxCell>
        <mxCell id="jaTv15KmfSq4KuKZcP_w-74" value="&lt;div&gt;-userId: int&lt;/div&gt;&lt;div&gt;-username:string&lt;/div&gt;&lt;div&gt;-email:string&lt;/div&gt;&lt;div&gt;-password:string&lt;/div&gt;&lt;div&gt;-role: string&lt;/div&gt;" style="text;strokeColor=none;fillColor=none;align=left;verticalAlign=top;spacingLeft=4;spacingRight=4;overflow=hidden;rotatable=0;points=[[0,0.5],[1,0.5]];portConstraint=eastwest;whiteSpace=wrap;html=1;" parent="jaTv15KmfSq4KuKZcP_w-73" vertex="1">
          <mxGeometry y="26" width="110" height="84" as="geometry" />
        </mxCell>
        <mxCell id="jaTv15KmfSq4KuKZcP_w-75" value="Movie" style="swimlane;fontStyle=0;childLayout=stackLayout;horizontal=1;startSize=26;fillColor=none;horizontalStack=0;resizeParent=1;resizeParentMax=0;resizeLast=0;collapsible=1;marginBottom=0;whiteSpace=wrap;html=1;" parent="1" vertex="1">
          <mxGeometry x="-2113" y="917" width="160" height="90" as="geometry" />
        </mxCell>
        <mxCell id="jaTv15KmfSq4KuKZcP_w-76" value="&lt;div&gt;-movieId: int&lt;/div&gt;&lt;div&gt;-title: string&lt;/div&gt;&lt;div&gt;-director: string&lt;/div&gt;&lt;div&gt;-releaseDate: date&lt;/div&gt;" style="text;strokeColor=none;fillColor=none;align=left;verticalAlign=top;spacingLeft=4;spacingRight=4;overflow=hidden;rotatable=0;points=[[0,0.5],[1,0.5]];portConstraint=eastwest;whiteSpace=wrap;html=1;" parent="jaTv15KmfSq4KuKZcP_w-75" vertex="1">
          <mxGeometry y="26" width="160" height="64" as="geometry" />
        </mxCell>
        <mxCell id="jaTv15KmfSq4KuKZcP_w-77" value="Review" style="swimlane;fontStyle=0;childLayout=stackLayout;horizontal=1;startSize=26;fillColor=none;horizontalStack=0;resizeParent=1;resizeParentMax=0;resizeLast=0;collapsible=1;marginBottom=0;whiteSpace=wrap;html=1;" parent="1" vertex="1">
          <mxGeometry x="-2253" y="917" width="100" height="110" as="geometry" />
        </mxCell>
        <mxCell id="jaTv15KmfSq4KuKZcP_w-78" value="&lt;div&gt;-reviewId: int&lt;/div&gt;&lt;div&gt;-userId: int&lt;/div&gt;&lt;div&gt;-movieId: int&lt;/div&gt;&lt;div&gt;-rating: int&lt;/div&gt;&lt;div&gt;-comment: string&lt;/div&gt;" style="text;strokeColor=none;fillColor=none;align=left;verticalAlign=top;spacingLeft=4;spacingRight=4;overflow=hidden;rotatable=0;points=[[0,0.5],[1,0.5]];portConstraint=eastwest;whiteSpace=wrap;html=1;" parent="jaTv15KmfSq4KuKZcP_w-77" vertex="1">
          <mxGeometry y="26" width="100" height="84" as="geometry" />
        </mxCell>
        <mxCell id="jaTv15KmfSq4KuKZcP_w-79" value="Interpretation" style="swimlane;fontStyle=0;childLayout=stackLayout;horizontal=1;startSize=26;fillColor=none;horizontalStack=0;resizeParent=1;resizeParentMax=0;resizeLast=0;collapsible=1;marginBottom=0;whiteSpace=wrap;html=1;" parent="1" vertex="1">
          <mxGeometry x="-1773" y="917" width="140" height="90" as="geometry" />
        </mxCell>
        <mxCell id="jaTv15KmfSq4KuKZcP_w-80" value="&lt;div&gt;-interpretationId: int&lt;/div&gt;&lt;div&gt;-userId: int&lt;/div&gt;&lt;div&gt;-movieId: int&lt;/div&gt;&lt;div&gt;-interpretationText:string&lt;/div&gt;" style="text;strokeColor=none;fillColor=none;align=left;verticalAlign=top;spacingLeft=4;spacingRight=4;overflow=hidden;rotatable=0;points=[[0,0.5],[1,0.5]];portConstraint=eastwest;whiteSpace=wrap;html=1;" parent="jaTv15KmfSq4KuKZcP_w-79" vertex="1">
          <mxGeometry y="26" width="140" height="64" as="geometry" />
        </mxCell>
        <mxCell id="jaTv15KmfSq4KuKZcP_w-81" value="Entity" style="swimlane;fontStyle=0;childLayout=stackLayout;horizontal=1;startSize=26;fillColor=none;horizontalStack=0;resizeParent=1;resizeParentMax=0;resizeLast=0;collapsible=1;marginBottom=0;whiteSpace=wrap;html=1;" parent="1" vertex="1">
          <mxGeometry x="-2043" y="1087" width="190" height="50" as="geometry" />
        </mxCell>
        <mxCell id="jaTv15KmfSq4KuKZcP_w-82" value="&lt;div&gt;-entityId: int&lt;/div&gt;" style="text;strokeColor=none;fillColor=none;align=left;verticalAlign=top;spacingLeft=4;spacingRight=4;overflow=hidden;rotatable=0;points=[[0,0.5],[1,0.5]];portConstraint=eastwest;whiteSpace=wrap;html=1;" parent="jaTv15KmfSq4KuKZcP_w-81" vertex="1">
          <mxGeometry y="26" width="190" height="24" as="geometry" />
        </mxCell>
        <mxCell id="jaTv15KmfSq4KuKZcP_w-89" value="&lt;div&gt;&lt;br&gt;&lt;/div&gt;&lt;div&gt;&lt;br&gt;&lt;/div&gt;" style="endArrow=block;endSize=16;endFill=0;html=1;rounded=0;exitX=0.503;exitY=1.004;exitDx=0;exitDy=0;exitPerimeter=0;" parent="1" source="jaTv15KmfSq4KuKZcP_w-78" edge="1">
          <mxGeometry width="160" relative="1" as="geometry">
            <mxPoint x="-2203" y="1126.5" as="sourcePoint" />
            <mxPoint x="-2043" y="1126.5" as="targetPoint" />
            <Array as="points">
              <mxPoint x="-2203" y="1127" />
            </Array>
            <mxPoint as="offset" />
          </mxGeometry>
        </mxCell>
        <mxCell id="jaTv15KmfSq4KuKZcP_w-90" value="&lt;div&gt;&lt;br&gt;&lt;/div&gt;&lt;div&gt;&lt;br&gt;&lt;/div&gt;" style="endArrow=block;endSize=16;endFill=0;html=1;rounded=0;exitX=0.649;exitY=0.999;exitDx=0;exitDy=0;exitPerimeter=0;entryX=0.213;entryY=-0.006;entryDx=0;entryDy=0;entryPerimeter=0;" parent="1" target="jaTv15KmfSq4KuKZcP_w-81" edge="1">
          <mxGeometry width="160" relative="1" as="geometry">
            <mxPoint x="-2009.16" y="1006.9960000000001" as="sourcePoint" />
            <mxPoint x="-2006.2" y="1084.56" as="targetPoint" />
            <Array as="points">
              <mxPoint x="-2003" y="1007" />
            </Array>
            <mxPoint as="offset" />
          </mxGeometry>
        </mxCell>
        <mxCell id="jaTv15KmfSq4KuKZcP_w-91" value="&lt;div&gt;&lt;br&gt;&lt;/div&gt;&lt;div&gt;&lt;br&gt;&lt;/div&gt;" style="endArrow=block;endSize=16;endFill=0;html=1;rounded=0;entryX=0.213;entryY=-0.006;entryDx=0;entryDy=0;entryPerimeter=0;" parent="1" edge="1">
          <mxGeometry width="160" relative="1" as="geometry">
            <mxPoint x="-1873" y="1027" as="sourcePoint" />
            <mxPoint x="-1873" y="1087" as="targetPoint" />
            <Array as="points">
              <mxPoint x="-1873" y="1027" />
            </Array>
            <mxPoint as="offset" />
          </mxGeometry>
        </mxCell>
        <mxCell id="jaTv15KmfSq4KuKZcP_w-92" value="&lt;div&gt;&lt;br&gt;&lt;/div&gt;&lt;div&gt;&lt;br&gt;&lt;/div&gt;" style="endArrow=block;endSize=16;endFill=0;html=1;rounded=0;exitX=0.498;exitY=0.996;exitDx=0;exitDy=0;exitPerimeter=0;entryX=1;entryY=0.5;entryDx=0;entryDy=0;" parent="1" source="jaTv15KmfSq4KuKZcP_w-80" target="jaTv15KmfSq4KuKZcP_w-82" edge="1">
          <mxGeometry width="160" relative="1" as="geometry">
            <mxPoint x="-1773" y="1047" as="sourcePoint" />
            <mxPoint x="-1613" y="1146.5" as="targetPoint" />
            <Array as="points">
              <mxPoint x="-1703" y="1125" />
            </Array>
            <mxPoint as="offset" />
          </mxGeometry>
        </mxCell>
        <mxCell id="jaTv15KmfSq4KuKZcP_w-93" value="Manager Classes" style="shape=umlFrame;whiteSpace=wrap;html=1;pointerEvents=0;" parent="1" vertex="1">
          <mxGeometry x="-803" y="470" width="750" height="680" as="geometry" />
        </mxCell>
        <mxCell id="jaTv15KmfSq4KuKZcP_w-94" value="GeneralManager" style="swimlane;fontStyle=1;align=center;verticalAlign=top;childLayout=stackLayout;horizontal=1;startSize=26;horizontalStack=0;resizeParent=1;resizeParentMax=0;resizeLast=0;collapsible=1;marginBottom=0;whiteSpace=wrap;html=1;" parent="1" vertex="1">
          <mxGeometry x="-783" y="530" width="230" height="210" as="geometry" />
        </mxCell>
        <mxCell id="jaTv15KmfSq4KuKZcP_w-95" value="-currentUser: User&lt;div&gt;-searchResults: List&amp;lt;Movie&amp;gt;&lt;/div&gt;" style="text;strokeColor=none;fillColor=none;align=left;verticalAlign=top;spacingLeft=4;spacingRight=4;overflow=hidden;rotatable=0;points=[[0,0.5],[1,0.5]];portConstraint=eastwest;whiteSpace=wrap;html=1;" parent="jaTv15KmfSq4KuKZcP_w-94" vertex="1">
          <mxGeometry y="26" width="230" height="34" as="geometry" />
        </mxCell>
        <mxCell id="jaTv15KmfSq4KuKZcP_w-96" value="" style="line;strokeWidth=1;fillColor=none;align=left;verticalAlign=middle;spacingTop=-1;spacingLeft=3;spacingRight=3;rotatable=0;labelPosition=right;points=[];portConstraint=eastwest;strokeColor=inherit;" parent="jaTv15KmfSq4KuKZcP_w-94" vertex="1">
          <mxGeometry y="60" width="230" height="8" as="geometry" />
        </mxCell>
        <mxCell id="jaTv15KmfSq4KuKZcP_w-97" value="+fetchUserDatas(userId: int)&lt;div&gt;+fetchMovieData(movieId: int)&lt;/div&gt;&lt;div&gt;+fetchReviewData(userId: int)&lt;/div&gt;&lt;div&gt;+fetchInterpretationData(userId: int)&lt;/div&gt;&lt;div&gt;+searchMovies(criteria: string)&lt;/div&gt;&lt;div&gt;+executeQuery(query:string)&lt;/div&gt;&lt;div&gt;+fetchResults(query:string)&lt;/div&gt;&lt;div&gt;+executeAnalysis(query: string)&lt;/div&gt;&lt;div&gt;+generateRecommendations(user: User)&lt;/div&gt;" style="text;strokeColor=none;fillColor=none;align=left;verticalAlign=top;spacingLeft=4;spacingRight=4;overflow=hidden;rotatable=0;points=[[0,0.5],[1,0.5]];portConstraint=eastwest;whiteSpace=wrap;html=1;" parent="jaTv15KmfSq4KuKZcP_w-94" vertex="1">
          <mxGeometry y="68" width="230" height="142" as="geometry" />
        </mxCell>
        <mxCell id="jaTv15KmfSq4KuKZcP_w-98" value="UserManager" style="swimlane;fontStyle=1;align=center;verticalAlign=top;childLayout=stackLayout;horizontal=1;startSize=26;horizontalStack=0;resizeParent=1;resizeParentMax=0;resizeLast=0;collapsible=1;marginBottom=0;whiteSpace=wrap;html=1;" parent="1" vertex="1">
          <mxGeometry x="-783" y="920" width="230" height="200" as="geometry" />
        </mxCell>
        <mxCell id="jaTv15KmfSq4KuKZcP_w-99" value="-username: string&lt;div&gt;-email:string&lt;/div&gt;&lt;div&gt;-password: string&lt;/div&gt;" style="text;strokeColor=none;fillColor=none;align=left;verticalAlign=top;spacingLeft=4;spacingRight=4;overflow=hidden;rotatable=0;points=[[0,0.5],[1,0.5]];portConstraint=eastwest;whiteSpace=wrap;html=1;" parent="jaTv15KmfSq4KuKZcP_w-98" vertex="1">
          <mxGeometry y="26" width="230" height="54" as="geometry" />
        </mxCell>
        <mxCell id="jaTv15KmfSq4KuKZcP_w-100" value="" style="line;strokeWidth=1;fillColor=none;align=left;verticalAlign=middle;spacingTop=-1;spacingLeft=3;spacingRight=3;rotatable=0;labelPosition=right;points=[];portConstraint=eastwest;strokeColor=inherit;" parent="jaTv15KmfSq4KuKZcP_w-98" vertex="1">
          <mxGeometry y="80" width="230" height="8" as="geometry" />
        </mxCell>
        <mxCell id="jaTv15KmfSq4KuKZcP_w-101" value="+setUsername(username:string)&lt;div&gt;+setEmail(email:string)&lt;/div&gt;&lt;div&gt;+setPassword(password:string)&lt;/div&gt;&lt;div&gt;+getUsername(): string&lt;/div&gt;&lt;div&gt;+getEmail(): string&lt;/div&gt;&lt;div&gt;+getPassword(): string&lt;/div&gt;&lt;div&gt;hashAndSaltPassword(password:string)&lt;/div&gt;" style="text;strokeColor=none;fillColor=none;align=left;verticalAlign=top;spacingLeft=4;spacingRight=4;overflow=hidden;rotatable=0;points=[[0,0.5],[1,0.5]];portConstraint=eastwest;whiteSpace=wrap;html=1;" parent="jaTv15KmfSq4KuKZcP_w-98" vertex="1">
          <mxGeometry y="88" width="230" height="112" as="geometry" />
        </mxCell>
        <mxCell id="jaTv15KmfSq4KuKZcP_w-102" value="ReviewManager" style="swimlane;fontStyle=1;align=center;verticalAlign=top;childLayout=stackLayout;horizontal=1;startSize=26;horizontalStack=0;resizeParent=1;resizeParentMax=0;resizeLast=0;collapsible=1;marginBottom=0;whiteSpace=wrap;html=1;" parent="1" vertex="1">
          <mxGeometry x="-373" y="530" width="220" height="180" as="geometry" />
        </mxCell>
        <mxCell id="jaTv15KmfSq4KuKZcP_w-103" value="-reviewDetails: Review&lt;div&gt;-reviewId: int&lt;/div&gt;&lt;div&gt;-movieId: int&lt;/div&gt;" style="text;strokeColor=none;fillColor=none;align=left;verticalAlign=top;spacingLeft=4;spacingRight=4;overflow=hidden;rotatable=0;points=[[0,0.5],[1,0.5]];portConstraint=eastwest;whiteSpace=wrap;html=1;" parent="jaTv15KmfSq4KuKZcP_w-102" vertex="1">
          <mxGeometry y="26" width="220" height="54" as="geometry" />
        </mxCell>
        <mxCell id="jaTv15KmfSq4KuKZcP_w-104" value="" style="line;strokeWidth=1;fillColor=none;align=left;verticalAlign=middle;spacingTop=-1;spacingLeft=3;spacingRight=3;rotatable=0;labelPosition=right;points=[];portConstraint=eastwest;strokeColor=inherit;" parent="jaTv15KmfSq4KuKZcP_w-102" vertex="1">
          <mxGeometry y="80" width="220" height="8" as="geometry" />
        </mxCell>
        <mxCell id="jaTv15KmfSq4KuKZcP_w-105" value="+createReview(reviewDetails:Review)&lt;div&gt;+updateReview(reviewId: int, reviewDetails: Review)&lt;/div&gt;&lt;div&gt;+deleteReview(reviewId: int)&lt;/div&gt;&lt;div&gt;+getMovieReviews(movieId: int)&lt;/div&gt;" style="text;strokeColor=none;fillColor=none;align=left;verticalAlign=top;spacingLeft=4;spacingRight=4;overflow=hidden;rotatable=0;points=[[0,0.5],[1,0.5]];portConstraint=eastwest;whiteSpace=wrap;html=1;" parent="jaTv15KmfSq4KuKZcP_w-102" vertex="1">
          <mxGeometry y="88" width="220" height="92" as="geometry" />
        </mxCell>
        <mxCell id="jaTv15KmfSq4KuKZcP_w-106" value="InterpretationManager" style="swimlane;fontStyle=1;align=center;verticalAlign=top;childLayout=stackLayout;horizontal=1;startSize=26;horizontalStack=0;resizeParent=1;resizeParentMax=0;resizeLast=0;collapsible=1;marginBottom=0;whiteSpace=wrap;html=1;" parent="1" vertex="1">
          <mxGeometry x="-503" y="960" width="430" height="120" as="geometry" />
        </mxCell>
        <mxCell id="jaTv15KmfSq4KuKZcP_w-107" value="-interpretationDetails: interpretation&lt;div&gt;-interpretationId: int&lt;/div&gt;" style="text;strokeColor=none;fillColor=none;align=left;verticalAlign=top;spacingLeft=4;spacingRight=4;overflow=hidden;rotatable=0;points=[[0,0.5],[1,0.5]];portConstraint=eastwest;whiteSpace=wrap;html=1;" parent="jaTv15KmfSq4KuKZcP_w-106" vertex="1">
          <mxGeometry y="26" width="430" height="34" as="geometry" />
        </mxCell>
        <mxCell id="jaTv15KmfSq4KuKZcP_w-108" value="" style="line;strokeWidth=1;fillColor=none;align=left;verticalAlign=middle;spacingTop=-1;spacingLeft=3;spacingRight=3;rotatable=0;labelPosition=right;points=[];portConstraint=eastwest;strokeColor=inherit;" parent="jaTv15KmfSq4KuKZcP_w-106" vertex="1">
          <mxGeometry y="60" width="430" height="8" as="geometry" />
        </mxCell>
        <mxCell id="jaTv15KmfSq4KuKZcP_w-109" value="+createInterpretation(interpretationDetails: interpretation)&lt;div&gt;+updateInterpretation(jnterpretationId: int, interpretationDetails: interpretation)&lt;/div&gt;&lt;div&gt;+deleteInterpretation(interpretationId: int)&lt;/div&gt;" style="text;strokeColor=none;fillColor=none;align=left;verticalAlign=top;spacingLeft=4;spacingRight=4;overflow=hidden;rotatable=0;points=[[0,0.5],[1,0.5]];portConstraint=eastwest;whiteSpace=wrap;html=1;" parent="jaTv15KmfSq4KuKZcP_w-106" vertex="1">
          <mxGeometry y="68" width="430" height="52" as="geometry" />
        </mxCell>
        <mxCell id="jaTv15KmfSq4KuKZcP_w-110" value="MovieManager" style="swimlane;fontStyle=1;align=center;verticalAlign=top;childLayout=stackLayout;horizontal=1;startSize=26;horizontalStack=0;resizeParent=1;resizeParentMax=0;resizeLast=0;collapsible=1;marginBottom=0;whiteSpace=wrap;html=1;" parent="1" vertex="1">
          <mxGeometry x="-373" y="750" width="220" height="160" as="geometry" />
        </mxCell>
        <mxCell id="jaTv15KmfSq4KuKZcP_w-111" value="-movieDetails: Movie&lt;div&gt;-movieId: int&lt;/div&gt;" style="text;strokeColor=none;fillColor=none;align=left;verticalAlign=top;spacingLeft=4;spacingRight=4;overflow=hidden;rotatable=0;points=[[0,0.5],[1,0.5]];portConstraint=eastwest;whiteSpace=wrap;html=1;" parent="jaTv15KmfSq4KuKZcP_w-110" vertex="1">
          <mxGeometry y="26" width="220" height="34" as="geometry" />
        </mxCell>
        <mxCell id="jaTv15KmfSq4KuKZcP_w-112" value="" style="line;strokeWidth=1;fillColor=none;align=left;verticalAlign=middle;spacingTop=-1;spacingLeft=3;spacingRight=3;rotatable=0;labelPosition=right;points=[];portConstraint=eastwest;strokeColor=inherit;" parent="jaTv15KmfSq4KuKZcP_w-110" vertex="1">
          <mxGeometry y="60" width="220" height="8" as="geometry" />
        </mxCell>
        <mxCell id="jaTv15KmfSq4KuKZcP_w-113" value="+createMovie(movieDetails: Movie)&lt;div&gt;+updateMovie(movieId: int, movieDetails: Movie)&lt;/div&gt;&lt;div&gt;+deleteMovie(movieId:int)&lt;/div&gt;" style="text;strokeColor=none;fillColor=none;align=left;verticalAlign=top;spacingLeft=4;spacingRight=4;overflow=hidden;rotatable=0;points=[[0,0.5],[1,0.5]];portConstraint=eastwest;whiteSpace=wrap;html=1;" parent="jaTv15KmfSq4KuKZcP_w-110" vertex="1">
          <mxGeometry y="68" width="220" height="92" as="geometry" />
        </mxCell>
        <mxCell id="jaTv15KmfSq4KuKZcP_w-114" value="BackendService" style="swimlane;fontStyle=1;align=center;verticalAlign=top;childLayout=stackLayout;horizontal=1;startSize=26;horizontalStack=0;resizeParent=1;resizeParentMax=0;resizeLast=0;collapsible=1;marginBottom=0;whiteSpace=wrap;html=1;" parent="1" vertex="1">
          <mxGeometry x="-1463" y="587" width="510" height="130" as="geometry" />
        </mxCell>
        <mxCell id="jaTv15KmfSq4KuKZcP_w-115" value="-userManager: UserManager&lt;div&gt;-reviewManager: ReviewManager&lt;/div&gt;&lt;div&gt;- interpretationManager: InterpretationManager&lt;/div&gt;&lt;div&gt;- movieManager: MovieManager&lt;/div&gt;&lt;div&gt;-databaseOperations: DatabaseOperations&lt;/div&gt;" style="text;strokeColor=none;fillColor=none;align=left;verticalAlign=top;spacingLeft=4;spacingRight=4;overflow=hidden;rotatable=0;points=[[0,0.5],[1,0.5]];portConstraint=eastwest;whiteSpace=wrap;html=1;" parent="jaTv15KmfSq4KuKZcP_w-114" vertex="1">
          <mxGeometry y="26" width="510" height="74" as="geometry" />
        </mxCell>
        <mxCell id="jaTv15KmfSq4KuKZcP_w-116" value="" style="line;strokeWidth=1;fillColor=none;align=left;verticalAlign=middle;spacingTop=-1;spacingLeft=3;spacingRight=3;rotatable=0;labelPosition=right;points=[];portConstraint=eastwest;strokeColor=inherit;" parent="jaTv15KmfSq4KuKZcP_w-114" vertex="1">
          <mxGeometry y="100" width="510" height="8" as="geometry" />
        </mxCell>
        <mxCell id="jaTv15KmfSq4KuKZcP_w-117" value="+performDatabaseOperation(operation)" style="text;strokeColor=none;fillColor=none;align=left;verticalAlign=top;spacingLeft=4;spacingRight=4;overflow=hidden;rotatable=0;points=[[0,0.5],[1,0.5]];portConstraint=eastwest;whiteSpace=wrap;html=1;" parent="jaTv15KmfSq4KuKZcP_w-114" vertex="1">
          <mxGeometry y="108" width="510" height="22" as="geometry" />
        </mxCell>
        <mxCell id="jaTv15KmfSq4KuKZcP_w-134" value="" style="endArrow=block;endSize=16;endFill=0;html=1;rounded=0;entryX=0.499;entryY=0.989;entryDx=0;entryDy=0;entryPerimeter=0;exitX=0.5;exitY=0;exitDx=0;exitDy=0;" parent="1" source="jaTv15KmfSq4KuKZcP_w-98" target="jaTv15KmfSq4KuKZcP_w-97" edge="1">
          <mxGeometry width="160" relative="1" as="geometry">
            <mxPoint x="-733" y="847" as="sourcePoint" />
            <mxPoint x="-573" y="847" as="targetPoint" />
          </mxGeometry>
        </mxCell>
        <mxCell id="jaTv15KmfSq4KuKZcP_w-135" value="" style="endArrow=block;endSize=16;endFill=0;html=1;rounded=0;entryX=0.499;entryY=0.989;entryDx=0;entryDy=0;entryPerimeter=0;exitX=0.052;exitY=-0.002;exitDx=0;exitDy=0;exitPerimeter=0;" parent="1" source="jaTv15KmfSq4KuKZcP_w-106" edge="1">
          <mxGeometry width="160" relative="1" as="geometry">
            <mxPoint x="-563" y="922" as="sourcePoint" />
            <mxPoint x="-563" y="740" as="targetPoint" />
            <Array as="points">
              <mxPoint x="-483" y="957" />
              <mxPoint x="-563" y="857" />
            </Array>
          </mxGeometry>
        </mxCell>
        <mxCell id="jaTv15KmfSq4KuKZcP_w-136" value="" style="endArrow=block;endSize=16;endFill=0;html=1;rounded=0;entryX=1.003;entryY=0.833;entryDx=0;entryDy=0;entryPerimeter=0;exitX=0;exitY=0.98;exitDx=0;exitDy=0;exitPerimeter=0;" parent="1" source="jaTv15KmfSq4KuKZcP_w-111" target="jaTv15KmfSq4KuKZcP_w-97" edge="1">
          <mxGeometry width="160" relative="1" as="geometry">
            <mxPoint x="-463" y="819" as="sourcePoint" />
            <mxPoint x="-463" y="637" as="targetPoint" />
            <Array as="points">
              <mxPoint x="-443" y="717" />
            </Array>
          </mxGeometry>
        </mxCell>
        <mxCell id="jaTv15KmfSq4KuKZcP_w-137" value="" style="endArrow=block;endSize=16;endFill=0;html=1;rounded=0;entryX=1;entryY=0.2;entryDx=0;entryDy=0;entryPerimeter=0;" parent="1" target="jaTv15KmfSq4KuKZcP_w-97" edge="1">
          <mxGeometry width="160" relative="1" as="geometry">
            <mxPoint x="-373" y="627" as="sourcePoint" />
            <mxPoint x="-543" y="627" as="targetPoint" />
          </mxGeometry>
        </mxCell>
        <mxCell id="ezJtMZ_-pT23GLF0U74k-7" value="" style="endArrow=block;endFill=1;html=1;edgeStyle=orthogonalEdgeStyle;align=left;verticalAlign=top;rounded=0;exitX=1;exitY=0.927;exitDx=0;exitDy=0;exitPerimeter=0;" edge="1" parent="1" source="jaTv15KmfSq4KuKZcP_w-42">
          <mxGeometry x="-1" relative="1" as="geometry">
            <mxPoint x="-1893" y="717" as="sourcePoint" />
            <mxPoint x="-1463" y="717" as="targetPoint" />
          </mxGeometry>
        </mxCell>
        <mxCell id="ezJtMZ_-pT23GLF0U74k-9" value="" style="endArrow=none;html=1;edgeStyle=orthogonalEdgeStyle;rounded=0;exitX=0.487;exitY=1;exitDx=0;exitDy=0;exitPerimeter=0;" edge="1" parent="1" source="jaTv15KmfSq4KuKZcP_w-52">
          <mxGeometry relative="1" as="geometry">
            <mxPoint x="-1694.5" y="667" as="sourcePoint" />
            <mxPoint x="-1673" y="717" as="targetPoint" />
            <Array as="points">
              <mxPoint x="-1673" y="667" />
            </Array>
          </mxGeometry>
        </mxCell>
        <mxCell id="ezJtMZ_-pT23GLF0U74k-12" value="" style="endArrow=block;endFill=1;html=1;edgeStyle=orthogonalEdgeStyle;align=left;verticalAlign=top;rounded=0;" edge="1" parent="1">
          <mxGeometry x="-1" relative="1" as="geometry">
            <mxPoint x="-953" y="717" as="sourcePoint" />
            <mxPoint x="-803" y="717" as="targetPoint" />
            <mxPoint as="offset" />
          </mxGeometry>
        </mxCell>
        <mxCell id="ezJtMZ_-pT23GLF0U74k-14" value="" style="endArrow=block;endFill=1;html=1;edgeStyle=orthogonalEdgeStyle;align=left;verticalAlign=top;rounded=0;" edge="1" parent="1">
          <mxGeometry x="-1" relative="1" as="geometry">
            <mxPoint x="-803" y="957" as="sourcePoint" />
            <mxPoint x="-903" y="957" as="targetPoint" />
            <mxPoint as="offset" />
            <Array as="points">
              <mxPoint x="-803" y="957" />
              <mxPoint x="-803" y="951" />
            </Array>
          </mxGeometry>
        </mxCell>
        <mxCell id="ezJtMZ_-pT23GLF0U74k-15" value="" style="endArrow=block;endFill=1;html=1;edgeStyle=orthogonalEdgeStyle;align=left;verticalAlign=top;rounded=0;exitX=-0.001;exitY=0.693;exitDx=0;exitDy=0;exitPerimeter=0;entryX=1.001;entryY=0.86;entryDx=0;entryDy=0;entryPerimeter=0;" edge="1" parent="1" target="jaTv15KmfSq4KuKZcP_w-72">
          <mxGeometry x="-1" relative="1" as="geometry">
            <mxPoint x="-804" y="1150" as="sourcePoint" />
            <mxPoint x="-1573" y="1137" as="targetPoint" />
            <mxPoint as="offset" />
          </mxGeometry>
        </mxCell>
        <mxCell id="ezJtMZ_-pT23GLF0U74k-16" value="" style="endArrow=block;dashed=1;endFill=0;endSize=12;html=1;rounded=0;entryX=0.539;entryY=1.009;entryDx=0;entryDy=0;entryPerimeter=0;" edge="1" parent="1">
          <mxGeometry width="160" relative="1" as="geometry">
            <mxPoint x="-2070.99" y="656.35" as="sourcePoint" />
            <mxPoint x="-2071.177" y="596.9979999999999" as="targetPoint" />
          </mxGeometry>
        </mxCell>
        <mxCell id="ezJtMZ_-pT23GLF0U74k-17" value="" style="endArrow=block;dashed=1;endFill=0;endSize=12;html=1;rounded=0;entryX=1.002;entryY=0.341;entryDx=0;entryDy=0;entryPerimeter=0;exitX=-0.002;exitY=0.068;exitDx=0;exitDy=0;exitPerimeter=0;" edge="1" parent="1" source="jaTv15KmfSq4KuKZcP_w-52">
          <mxGeometry width="160" relative="1" as="geometry">
            <mxPoint x="-1807.39" y="530.004" as="sourcePoint" />
            <mxPoint x="-1895.996" y="530.292" as="targetPoint" />
          </mxGeometry>
        </mxCell>
        <mxCell id="ezJtMZ_-pT23GLF0U74k-21" value="1" style="text;html=1;align=center;verticalAlign=middle;whiteSpace=wrap;rounded=0;" vertex="1" parent="1">
          <mxGeometry x="-1673" y="597" width="20" height="18" as="geometry" />
        </mxCell>
        <mxCell id="ezJtMZ_-pT23GLF0U74k-22" value="1" style="text;html=1;align=center;verticalAlign=middle;whiteSpace=wrap;rounded=0;" vertex="1" parent="1">
          <mxGeometry x="-1893" y="697" width="20" height="20" as="geometry" />
        </mxCell>
        <mxCell id="ezJtMZ_-pT23GLF0U74k-24" value="1" style="text;html=1;align=center;verticalAlign=middle;whiteSpace=wrap;rounded=0;" vertex="1" parent="1">
          <mxGeometry x="-1493" y="697" width="20" height="18" as="geometry" />
        </mxCell>
        <mxCell id="ezJtMZ_-pT23GLF0U74k-25" value="" style="endArrow=block;endFill=1;html=1;edgeStyle=orthogonalEdgeStyle;align=left;verticalAlign=top;rounded=0;exitX=0.509;exitY=1.018;exitDx=0;exitDy=0;exitPerimeter=0;entryX=0.559;entryY=0;entryDx=0;entryDy=0;entryPerimeter=0;" edge="1" parent="1" source="jaTv15KmfSq4KuKZcP_w-117" target="ezJtMZ_-pT23GLF0U74k-49">
          <mxGeometry x="-1" relative="1" as="geometry">
            <mxPoint x="-1207.7599999999998" y="768.824" as="sourcePoint" />
            <mxPoint x="-1203.4099999999999" y="806.7199999999999" as="targetPoint" />
            <mxPoint as="offset" />
          </mxGeometry>
        </mxCell>
        <mxCell id="ezJtMZ_-pT23GLF0U74k-27" value="&lt;font style=&quot;font-size: 8px;&quot;&gt;1&lt;/font&gt;" style="text;html=1;align=center;verticalAlign=middle;whiteSpace=wrap;rounded=0;" vertex="1" parent="1">
          <mxGeometry x="-1203" y="777" width="10" height="10" as="geometry" />
        </mxCell>
        <mxCell id="ezJtMZ_-pT23GLF0U74k-29" value="1" style="text;html=1;align=center;verticalAlign=middle;whiteSpace=wrap;rounded=0;" vertex="1" parent="1">
          <mxGeometry x="-828" y="1133.5" width="20" height="13" as="geometry" />
        </mxCell>
        <mxCell id="ezJtMZ_-pT23GLF0U74k-30" value="1...*" style="text;html=1;align=center;verticalAlign=middle;whiteSpace=wrap;rounded=0;" vertex="1" parent="1">
          <mxGeometry x="-1593" y="1130" width="30" height="20" as="geometry" />
        </mxCell>
        <mxCell id="ezJtMZ_-pT23GLF0U74k-31" value="UserDatabase" style="swimlane;fontStyle=1;align=center;verticalAlign=top;childLayout=stackLayout;horizontal=1;startSize=26;horizontalStack=0;resizeParent=1;resizeParentMax=0;resizeLast=0;collapsible=1;marginBottom=0;whiteSpace=wrap;html=1;" vertex="1" parent="1">
          <mxGeometry x="-1543" y="817" width="240" height="108" as="geometry" />
        </mxCell>
        <mxCell id="ezJtMZ_-pT23GLF0U74k-32" value="-userDetails: User" style="text;strokeColor=none;fillColor=none;align=left;verticalAlign=top;spacingLeft=4;spacingRight=4;overflow=hidden;rotatable=0;points=[[0,0.5],[1,0.5]];portConstraint=eastwest;whiteSpace=wrap;html=1;" vertex="1" parent="ezJtMZ_-pT23GLF0U74k-31">
          <mxGeometry y="26" width="240" height="24" as="geometry" />
        </mxCell>
        <mxCell id="ezJtMZ_-pT23GLF0U74k-33" value="" style="line;strokeWidth=1;fillColor=none;align=left;verticalAlign=middle;spacingTop=-1;spacingLeft=3;spacingRight=3;rotatable=0;labelPosition=right;points=[];portConstraint=eastwest;strokeColor=inherit;" vertex="1" parent="ezJtMZ_-pT23GLF0U74k-31">
          <mxGeometry y="50" width="240" height="8" as="geometry" />
        </mxCell>
        <mxCell id="ezJtMZ_-pT23GLF0U74k-34" value="+insertUser(userDetails: User)&lt;div&gt;+updateUser(userId: int, userDetails: User)&lt;/div&gt;&lt;div&gt;+deleteUser(userId:int)&lt;/div&gt;" style="text;strokeColor=none;fillColor=none;align=left;verticalAlign=top;spacingLeft=4;spacingRight=4;overflow=hidden;rotatable=0;points=[[0,0.5],[1,0.5]];portConstraint=eastwest;whiteSpace=wrap;html=1;" vertex="1" parent="ezJtMZ_-pT23GLF0U74k-31">
          <mxGeometry y="58" width="240" height="50" as="geometry" />
        </mxCell>
        <mxCell id="ezJtMZ_-pT23GLF0U74k-35" value="ReviewDatabase" style="swimlane;fontStyle=1;align=center;verticalAlign=top;childLayout=stackLayout;horizontal=1;startSize=26;horizontalStack=0;resizeParent=1;resizeParentMax=0;resizeLast=0;collapsible=1;marginBottom=0;whiteSpace=wrap;html=1;" vertex="1" parent="1">
          <mxGeometry x="-1273" y="817" width="290" height="108" as="geometry" />
        </mxCell>
        <mxCell id="ezJtMZ_-pT23GLF0U74k-36" value="-reviewDetails: Review" style="text;strokeColor=none;fillColor=none;align=left;verticalAlign=top;spacingLeft=4;spacingRight=4;overflow=hidden;rotatable=0;points=[[0,0.5],[1,0.5]];portConstraint=eastwest;whiteSpace=wrap;html=1;" vertex="1" parent="ezJtMZ_-pT23GLF0U74k-35">
          <mxGeometry y="26" width="290" height="24" as="geometry" />
        </mxCell>
        <mxCell id="ezJtMZ_-pT23GLF0U74k-37" value="" style="line;strokeWidth=1;fillColor=none;align=left;verticalAlign=middle;spacingTop=-1;spacingLeft=3;spacingRight=3;rotatable=0;labelPosition=right;points=[];portConstraint=eastwest;strokeColor=inherit;" vertex="1" parent="ezJtMZ_-pT23GLF0U74k-35">
          <mxGeometry y="50" width="290" height="8" as="geometry" />
        </mxCell>
        <mxCell id="ezJtMZ_-pT23GLF0U74k-38" value="+insertReview(reviewDetails: Review)&lt;div&gt;+updateReview(reviewId: int, reviewDetails: Review)&lt;/div&gt;&lt;div&gt;+deleteReview(reviewId:int)&lt;/div&gt;" style="text;strokeColor=none;fillColor=none;align=left;verticalAlign=top;spacingLeft=4;spacingRight=4;overflow=hidden;rotatable=0;points=[[0,0.5],[1,0.5]];portConstraint=eastwest;whiteSpace=wrap;html=1;" vertex="1" parent="ezJtMZ_-pT23GLF0U74k-35">
          <mxGeometry y="58" width="290" height="50" as="geometry" />
        </mxCell>
        <mxCell id="ezJtMZ_-pT23GLF0U74k-39" value="InterpretationDatabase" style="swimlane;fontStyle=1;align=center;verticalAlign=top;childLayout=stackLayout;horizontal=1;startSize=26;horizontalStack=0;resizeParent=1;resizeParentMax=0;resizeLast=0;collapsible=1;marginBottom=0;whiteSpace=wrap;html=1;" vertex="1" parent="1">
          <mxGeometry x="-1543" y="957" width="320" height="150" as="geometry" />
        </mxCell>
        <mxCell id="ezJtMZ_-pT23GLF0U74k-40" value="-interpretationDetails: Interpretation" style="text;strokeColor=none;fillColor=none;align=left;verticalAlign=top;spacingLeft=4;spacingRight=4;overflow=hidden;rotatable=0;points=[[0,0.5],[1,0.5]];portConstraint=eastwest;whiteSpace=wrap;html=1;" vertex="1" parent="ezJtMZ_-pT23GLF0U74k-39">
          <mxGeometry y="26" width="320" height="24" as="geometry" />
        </mxCell>
        <mxCell id="ezJtMZ_-pT23GLF0U74k-41" value="" style="line;strokeWidth=1;fillColor=none;align=left;verticalAlign=middle;spacingTop=-1;spacingLeft=3;spacingRight=3;rotatable=0;labelPosition=right;points=[];portConstraint=eastwest;strokeColor=inherit;" vertex="1" parent="ezJtMZ_-pT23GLF0U74k-39">
          <mxGeometry y="50" width="320" height="8" as="geometry" />
        </mxCell>
        <mxCell id="ezJtMZ_-pT23GLF0U74k-42" value="&lt;div&gt;&amp;nbsp; &amp;nbsp;+ insertInterpretation(interpretationDetails: Interpretation)&lt;/div&gt;&lt;div&gt;&amp;nbsp; &amp;nbsp;+ updateInterpretation(interpretationId: int,&amp;nbsp; &amp;nbsp; &amp;nbsp; &amp;nbsp; &amp;nbsp; &amp;nbsp; &amp;nbsp; &amp;nbsp; &amp;nbsp;interpretationDetails: Interpretation)&lt;/div&gt;&lt;div&gt;&amp;nbsp; &amp;nbsp;+ deleteInterpretation(interpretationId: int)&lt;/div&gt;" style="text;strokeColor=none;fillColor=none;align=left;verticalAlign=top;spacingLeft=4;spacingRight=4;overflow=hidden;rotatable=0;points=[[0,0.5],[1,0.5]];portConstraint=eastwest;whiteSpace=wrap;html=1;" vertex="1" parent="ezJtMZ_-pT23GLF0U74k-39">
          <mxGeometry y="58" width="320" height="92" as="geometry" />
        </mxCell>
        <mxCell id="ezJtMZ_-pT23GLF0U74k-43" value="MovieDatabase" style="swimlane;fontStyle=1;align=center;verticalAlign=top;childLayout=stackLayout;horizontal=1;startSize=26;horizontalStack=0;resizeParent=1;resizeParentMax=0;resizeLast=0;collapsible=1;marginBottom=0;whiteSpace=wrap;html=1;" vertex="1" parent="1">
          <mxGeometry x="-1203" y="978" width="270" height="108" as="geometry" />
        </mxCell>
        <mxCell id="ezJtMZ_-pT23GLF0U74k-44" value="-movieDetails: Movie" style="text;strokeColor=none;fillColor=none;align=left;verticalAlign=top;spacingLeft=4;spacingRight=4;overflow=hidden;rotatable=0;points=[[0,0.5],[1,0.5]];portConstraint=eastwest;whiteSpace=wrap;html=1;" vertex="1" parent="ezJtMZ_-pT23GLF0U74k-43">
          <mxGeometry y="26" width="270" height="24" as="geometry" />
        </mxCell>
        <mxCell id="ezJtMZ_-pT23GLF0U74k-45" value="" style="line;strokeWidth=1;fillColor=none;align=left;verticalAlign=middle;spacingTop=-1;spacingLeft=3;spacingRight=3;rotatable=0;labelPosition=right;points=[];portConstraint=eastwest;strokeColor=inherit;" vertex="1" parent="ezJtMZ_-pT23GLF0U74k-43">
          <mxGeometry y="50" width="270" height="8" as="geometry" />
        </mxCell>
        <mxCell id="ezJtMZ_-pT23GLF0U74k-46" value="+insertMovie(movieDetails: Movie)&lt;div&gt;+updateMovie(movieId: int, movieDetails: Movie)&lt;/div&gt;&lt;div&gt;+deleteMovie(movieId: int)&lt;/div&gt;" style="text;strokeColor=none;fillColor=none;align=left;verticalAlign=top;spacingLeft=4;spacingRight=4;overflow=hidden;rotatable=0;points=[[0,0.5],[1,0.5]];portConstraint=eastwest;whiteSpace=wrap;html=1;" vertex="1" parent="ezJtMZ_-pT23GLF0U74k-43">
          <mxGeometry y="58" width="270" height="50" as="geometry" />
        </mxCell>
        <mxCell id="ezJtMZ_-pT23GLF0U74k-49" value="DAL" style="shape=umlFrame;whiteSpace=wrap;html=1;pointerEvents=0;" vertex="1" parent="1">
          <mxGeometry x="-1583" y="803.5" width="680" height="317" as="geometry" />
        </mxCell>
        <mxCell id="ezJtMZ_-pT23GLF0U74k-50" value="&lt;font style=&quot;font-size: 8px;&quot;&gt;1&lt;/font&gt;" style="text;html=1;align=center;verticalAlign=middle;whiteSpace=wrap;rounded=0;" vertex="1" parent="1">
          <mxGeometry x="-1203" y="717" width="10" height="10" as="geometry" />
        </mxCell>
        <mxCell id="ezJtMZ_-pT23GLF0U74k-51" value="&lt;font style=&quot;font-size: 8px;&quot;&gt;1&lt;/font&gt;" style="text;html=1;align=center;verticalAlign=middle;whiteSpace=wrap;rounded=0;" vertex="1" parent="1">
          <mxGeometry x="-953" y="705" width="10" height="10" as="geometry" />
        </mxCell>
        <mxCell id="ezJtMZ_-pT23GLF0U74k-52" value="&lt;font style=&quot;font-size: 8px;&quot;&gt;1&lt;/font&gt;" style="text;html=1;align=center;verticalAlign=middle;whiteSpace=wrap;rounded=0;" vertex="1" parent="1">
          <mxGeometry x="-823" y="705" width="10" height="10" as="geometry" />
        </mxCell>
        <mxCell id="ezJtMZ_-pT23GLF0U74k-55" value="&lt;font style=&quot;font-size: 8px;&quot;&gt;1&lt;/font&gt;" style="text;html=1;align=center;verticalAlign=middle;whiteSpace=wrap;rounded=0;" vertex="1" parent="1">
          <mxGeometry x="-813" y="947" width="10" height="10" as="geometry" />
        </mxCell>
        <mxCell id="ezJtMZ_-pT23GLF0U74k-56" value="&lt;font style=&quot;font-size: 8px;&quot;&gt;1&lt;/font&gt;" style="text;html=1;align=center;verticalAlign=middle;whiteSpace=wrap;rounded=0;" vertex="1" parent="1">
          <mxGeometry x="-893" y="947" width="10" height="10" as="geometry" />
        </mxCell>
      </root>
    </mxGraphModel>
  </diagram>
</mxfile>
